<?xml version="1.0" encoding="iso-8859-1"?>
<!-- Generator: Adobe Illustrator 15.0.0, SVG Export Plug-In . SVG Version: 6.00 Build 0)  -->
<!DOCTYPE svg PUBLIC "-//W3C//DTD SVG 1.1//EN" "http://www.w3.org/Graphics/SVG/1.1/DTD/svg11.dtd">
<svg version="1.1" id="Layer_1" xmlns="http://www.w3.org/2000/svg" xmlns:xlink="http://www.w3.org/1999/xlink" x="0px" y="0px"
	 width="44.5px" height="43.675px" viewBox="0 0 44.5 43.675" style="enable-background:new 0 0 44.5 43.675;" xml:space="preserve"
	>
<circle style="fill-rule:evenodd;clip-rule:evenodd;fill:#BEBEBE;" cx="22.891" cy="21.608" r="21.609"/>
<g id="EKv1ML.tif">
	<g>
		<path style="fill-rule:evenodd;clip-rule:evenodd;" d="M24.677,17.019c1.103-1.738,1.413-3.913,2.436-6.182
			c0.685-1.521,2.126-4.539,3.746-4.684c0.977-0.087,2.195,0.83,2.437,1.686c1.02,3.631-2.477,8.182-2.81,11.242
			c2.337,0.571,3.374,2.38,3.56,4.872c0.492,6.659-3.839,13.719-11.805,13.676c-5.196-0.027-9.999-3.934-10.491-8.244
			c-0.295-2.58,0.69-5.069,3.372-5.246c-1.876-2.861,1.305-6.529,4.122-4.684c-0.6-2.825-5.959-13.653-0.937-13.864
			c2.012-0.084,3.422,3.288,4.121,4.871C23.523,12.937,23.833,14.864,24.677,17.019z M21.305,12.335
			c-0.745-2.098-1.642-6.735-3.559-4.684c-0.223,4.034,1.652,7.59,2.998,10.68c0.47-0.731,1.801-0.216,2.623-0.188
			C23.092,16.68,22.146,14.7,21.305,12.335z M31.609,7.838c-0.746-0.103-0.564-0.103-1.311,0c-1.965,2.97-2.998,6.87-4.123,10.68
			c1.026-0.026,1.783,0.217,2.623,0.375C29.712,15.376,32.298,11.728,31.609,7.838z M15.122,25.451
			c-1.437,0.028-2.106,2.184-1.874,3.747c0.581,3.894,4.608,6.728,8.619,6.932c6.331,0.323,10.712-5.124,10.679-11.241
			c-0.028-5.435-5.041-5.455-11.054-5.247c-0.146,0.042-0.218,0.158-0.188,0.376c-0.716,2.81,2.686,3.203,5.434,3.373
			c1.137,0.069,2.791-0.469,3.185,0.749c-2.648,1.455-6.361,3.154-6.37,6.746c-0.003,1.162,0.954,1.95,0.562,3.185
			c-1.611-0.327-1.904-1.97-1.875-3.935c-0.674,0.065-0.902,0.287-1.498,0c0.479,5.199-7.466,1.854-6.183-1.874
			c1.35,0.943,2.259,3.962,4.684,2.624C18.857,29.172,16.92,25.415,15.122,25.451z M17.558,20.579
			c-3.128,0.302-0.324,4.465,0.562,5.621c1,1.306,1.901,2.401,3.748,2.436C22.53,26.521,20.126,20.331,17.558,20.579z
			 M23.741,26.762c0.505-0.867,1.457-1.292,2.06-2.061c-1.304,0.055-2.309-0.188-3.185-0.563
			C23.011,24.993,23.141,26.114,23.741,26.762z"/>
		<path style="fill-rule:evenodd;clip-rule:evenodd;fill:#FFFFFF;" d="M23.366,18.144c-0.821-0.029-2.153-0.543-2.623,0.188
			c-1.346-3.09-3.221-6.646-2.998-10.68c1.917-2.051,2.814,2.586,3.559,4.684C22.146,14.7,23.092,16.68,23.366,18.144z"/>
		<path style="fill-rule:evenodd;clip-rule:evenodd;fill:#FFFFFF;" d="M28.798,18.893c-0.839-0.158-1.596-0.4-2.623-0.375
			c1.125-3.81,2.158-7.71,4.123-10.68c0.746-0.103,0.564-0.103,1.311,0C32.298,11.728,29.712,15.376,28.798,18.893z"/>
		<path style="fill-rule:evenodd;clip-rule:evenodd;fill:#FFFFFF;" d="M19.244,30.884c-2.424,1.338-3.334-1.681-4.684-2.624
			c-1.283,3.728,6.662,7.073,6.183,1.874c0.595,0.287,0.823,0.065,1.498,0c-0.029,1.965,0.264,3.607,1.875,3.935
			c0.392-1.235-0.565-2.023-0.562-3.185c0.009-3.592,3.721-5.292,6.37-6.746c-0.394-1.217-2.047-0.679-3.185-0.749
			c-2.748-0.169-6.149-0.562-5.434-3.373c-0.03-0.218,0.042-0.333,0.188-0.376c6.013-0.208,11.025-0.188,11.054,5.247
			c0.033,6.117-4.348,11.564-10.679,11.241c-4.01-0.204-8.038-3.038-8.619-6.932c-0.232-1.563,0.437-3.718,1.874-3.747
			C16.92,25.415,18.857,29.172,19.244,30.884z"/>
		<path style="fill-rule:evenodd;clip-rule:evenodd;fill:#FFFFFF;" d="M21.867,28.636c-1.847-0.035-2.747-1.13-3.748-2.436
			c-0.886-1.156-3.69-5.319-0.562-5.621C20.126,20.331,22.53,26.521,21.867,28.636z"/>
		<path style="fill-rule:evenodd;clip-rule:evenodd;fill:#FFFFFF;" d="M22.616,24.138c0.875,0.375,1.881,0.618,3.185,0.563
			c-0.604,0.769-1.555,1.193-2.06,2.061C23.141,26.114,23.011,24.993,22.616,24.138z"/>
	</g>
</g>
</svg>
