<?xml version="1.0" encoding="iso-8859-1"?>
<!-- Generator: Adobe Illustrator 15.0.0, SVG Export Plug-In . SVG Version: 6.00 Build 0)  -->
<!DOCTYPE svg PUBLIC "-//W3C//DTD SVG 1.1//EN" "http://www.w3.org/Graphics/SVG/1.1/DTD/svg11.dtd">
<svg version="1.1" id="Layer_1" xmlns="http://www.w3.org/2000/svg" xmlns:xlink="http://www.w3.org/1999/xlink" x="0px" y="0px"
	 width="44.5px" height="43.675px" viewBox="0 0 44.5 43.675" style="enable-background:new 0 0 44.5 43.675;" xml:space="preserve"
	>
<g>
	<path style="fill:#BEBEBE;" d="M7.6,7.037c4.099-4.1,9.049-6.149,14.851-6.149c5.801,0,10.75,2.05,14.85,6.149
		c4.1,4.1,6.15,9.05,6.15,14.851c0,5.801-2.051,10.751-6.15,14.851c-4.1,4.1-9.049,6.149-14.85,6.149
		c-5.801,0-10.751-2.049-14.851-6.149c-4.1-4.099-6.149-9.049-6.149-14.851C1.451,16.087,3.5,11.137,7.6,7.037z M16.472,30.638
		c2.333,0,4.018-0.51,5.055-1.531s1.556-2.309,1.556-3.865c0-1.037-0.235-1.903-0.705-2.601c-0.47-0.696-0.932-1.142-1.386-1.337
		l-0.68-0.243c1.458-0.745,2.188-1.96,2.188-3.646c0-1.458-0.495-2.592-1.483-3.403c-0.989-0.81-2.309-1.215-3.962-1.215H8.451
		v17.84H16.472z M18.951,17.853c0,1.329-0.875,1.993-2.625,1.993h-3.792v-3.938h3.354c1.069,0,1.847,0.138,2.333,0.413
		C18.708,16.598,18.951,17.108,18.951,17.853z M16.375,22.812c1.944,0,2.917,0.729,2.917,2.188c0,1.685-0.989,2.527-2.965,2.527
		h-3.792v-4.715H16.375z M28.041,24.999h9.285v-0.827c0-2.171-0.553-3.856-1.652-5.056c-1.104-1.198-2.658-1.798-4.668-1.798
		c-1.879,0-3.411,0.583-4.593,1.75c-1.184,1.167-1.774,2.868-1.774,5.104c0,2.139,0.591,3.792,1.774,4.958
		c1.183,1.167,2.747,1.75,4.691,1.75c1.523,0,2.844-0.389,3.961-1.167c1.119-0.777,1.807-1.782,2.066-3.014h-3.402
		c-0.033,0.097-0.105,0.227-0.219,0.389c-0.113,0.163-0.381,0.381-0.803,0.656c-0.422,0.276-0.924,0.414-1.506,0.414
		c-0.908,0-1.662-0.275-2.261-0.827C28.34,26.781,28.041,26.004,28.041,24.999z M27.214,13.138v1.75h7.729v-1.75H27.214z
		 M31.006,20.089c0.811,0,1.49,0.26,2.043,0.778c0.549,0.519,0.826,1.151,0.826,1.896h-5.786c0.065-0.778,0.356-1.417,0.875-1.92
		C29.482,20.34,30.163,20.089,31.006,20.089z M31.006,20.089c0.811,0,1.49,0.26,2.043,0.778c0.549,0.519,0.826,1.151,0.826,1.896
		h-5.786c0.065-0.778,0.356-1.417,0.875-1.92C29.482,20.34,30.163,20.089,31.006,20.089z M31.006,20.089
		c0.811,0,1.49,0.26,2.043,0.778c0.549,0.519,0.826,1.151,0.826,1.896h-5.786c0.065-0.778,0.356-1.417,0.875-1.92
		C29.482,20.34,30.163,20.089,31.006,20.089z"/>
</g>
</svg>
