<?xml version="1.0" encoding="iso-8859-1"?>
<!-- Generator: Adobe Illustrator 15.0.0, SVG Export Plug-In . SVG Version: 6.00 Build 0)  -->
<!DOCTYPE svg PUBLIC "-//W3C//DTD SVG 1.1//EN" "http://www.w3.org/Graphics/SVG/1.1/DTD/svg11.dtd">
<svg version="1.1" id="Layer_1" xmlns="http://www.w3.org/2000/svg" xmlns:xlink="http://www.w3.org/1999/xlink" x="0px" y="0px"
	 width="420.8px" height="108px" viewBox="0 0 420.8 108" style="enable-background:new 0 0 420.8 108;" xml:space="preserve">
<path style="fill-rule:evenodd;clip-rule:evenodd;fill:#8D8D8D;" d="M418.34,88.497c-5.606,7.514-15.7,15.986-32.2,15.667
	c-8.376-0.194-16.987-2.988-22.562-9.388c-4.702,3.909-12.278,7.828-19.568,7.949c-9.697,0.161-16.907-7.529-21.591-18.391
	c-2.089,0.834-4.4,0.954-6.907,0.954c-1.554,0-3.364-0.31-4.863-0.62c-0.063,2.17-0.958,5.115-2.009,8.06
	c-2.783,7.595-8.4,12.708-15.545,12.708c-9.475,0-18.284-8.369-22.516-21.232c-0.32-0.975-0.598-2.199-0.869-3.785
	c-2.061,2.847-4.152,4.87-7.475,4.87c-1.553,0-3.363-0.31-4.863-0.62c-0.062,2.17-0.958,5.115-2.009,8.06
	c-2.782,7.595-8.4,12.708-15.545,12.708c-9.474,0-18.284-8.369-22.515-21.232c-0.354-1.072-0.653-2.447-0.951-4.273
	c-2.042,3.125-3.835,5.358-7.393,5.358c-1.553,0-3.364-0.31-4.864-0.62c-0.062,2.17-0.958,5.115-2.008,8.06
	c-2.783,7.595-8.4,12.708-15.545,12.708c-9.474,0-18.284-8.369-22.515-21.232c-0.357-1.085-0.661-2.479-0.961-4.34
	c-0.134,0.08-0.272,0.149-0.413,0.209c-0.507,0.844-1.14,1.85-1.922,3.055c-3.048,4.962-11.773,19.588-20.584,19.748
	c-6.215,0.084-10.844-3.35-13.75-9.328c-3.891,4.438-9.541,9.328-15.877,9.328c-11.375,0-18.263-11.191-15.54-36.129
	c0.32-3.197-0.161-4.477-3.364-4.956c-1.923-0.319-4.005-0.479-6.088-0.8c-1.999,6.65-5.001,13.453-8.842,20.037l-0.281,0.687
	c-4.278,6.354-10.493,18.562-19.656,18.562c-5.281,0-9.46-2.79-12.753-6.664c-4.697,7.439-10.624,12.088-17.612,12.088
	c-10.717,0-19.185-8.701-21.835-16.76C-1.162,71.582,8.459,54.22,21.216,54.22c3.106,0,6.519-0.129,9.72,1.576
	c-2.353-15.654-1.586-32.392,3.023-42.931c1.781-4.03,4.804-8.06,10.085-8.06c7.455,0,11.608,7.904,13.138,12.554
	c4.486,13.639,0.728,46.374-8.96,67.917c2.716,5.424,4.37,5.889,5.529,5.274c7.482-3.962,10.221-8.239,12.33-11.838
	c0.021-0.071,0.041-0.144,0.061-0.217c0.141-0.2,0.282-0.403,0.422-0.61c0.442-0.758,0.87-1.48,1.325-2.156l1.521-3.004
	c0.166-0.246,0.346-0.451,0.537-0.623c2.514-4.887,4.613-10.296,5.808-14.309c-3.364-2.397-6.248-7.034-6.408-12.309
	c-0.16-3.677,1.442-7.514,6.088-7.993c5.126-0.479,11.054,4.956,11.695,12.789c3.845,1.119,8.331,1.119,12.175,1.918
	c6.568,1.278,9.132,4.796,8.331,12.629c-0.961,9.911-1.762,23.021,3.364,24.778c3.696,1.277,7.645-3.362,12.069-9.227
	c-0.252-2.711-0.33-5.611-0.224-8.678c0.16-6.555,0.801-14.867,1.922-19.823c0.48-1.918,1.282-2.718,3.204-2.398
	c1.762,0.32,3.524,1.119,4.966,2.238c1.922,1.439,2.883,3.836,2.563,7.674c-0.48,7.193-0.801,15.506-0.48,20.781
	c0.48,6.875,2.723,10.072,6.248,10.231c4.696,0.156,9.161-11.062,13.996-17.839c0.057-0.1,0.112-0.198,0.179-0.297l1.669-2.48
	c1.669-2.479,3.133-5.114,4.751-7.748c-0.393-24.333,3.354-58.275,15.779-58.275c4.504,0,8.159,4.029,9.434,7.904
	c4.231,12.864-7.767,40.606-15.973,55.795c0.122,6.51,0.817,12.398,2.244,16.738c3.466,10.539,8.119,11.934,10.138,11.934
	c3.106,0,7.11-3.409,9.313-8.988c0.998-2.635,1.788-5.425,1.645-7.75c-6.039-3.719-15.82-24.487-6.036-24.487
	c7.456,0,14.788,13.794,15.012,20.612c0.723,0.311,1.551,0.466,2.483,0.466c1.203,0,1.708-0.815,2.16-1.966
	c0.056-0.574,0.259-1.148,0.639-1.723c0.259-0.656,0.573-1.341,1.017-1.999l1.669-2.479c0.253-0.376,0.531-0.676,0.83-0.909
	c0.973-1.6,1.918-3.235,2.924-4.872c-0.394-24.333,3.354-58.275,15.778-58.275c4.504,0,8.159,4.029,9.434,7.904
	c4.231,12.864-7.767,40.606-15.974,55.795c0.123,6.51,0.816,12.398,2.244,16.738c3.467,10.539,8.119,11.934,10.138,11.934
	c3.106,0,7.11-3.409,9.313-8.988c0.997-2.635,1.788-5.425,1.645-7.75c-6.038-3.719-15.82-24.487-6.035-24.487
	c7.455,0,14.787,13.794,15.012,20.612c0.723,0.311,1.551,0.466,2.482,0.466c0.992,0,1.619-0.583,2.149-1.452
	c-0.042-0.756,0.16-1.512,0.669-2.268l1.669-2.48c1.669-2.479,3.133-5.114,4.751-7.748c-0.393-24.333,3.354-58.275,15.779-58.275
	c4.504,0,8.158,4.029,9.434,7.904c4.23,12.864-7.768,40.606-15.974,55.795c0.122,6.51,0.817,12.398,2.244,16.738
	c3.466,10.539,8.118,11.934,10.138,11.934c3.106,0,7.11-3.409,9.313-8.988c0.997-2.635,1.788-5.425,1.645-7.75
	c-6.038-3.719-15.82-24.487-6.035-24.487c7.455,0,14.788,13.794,15.011,20.612c0.724,0.311,1.551,0.466,2.483,0.466
	c2.329,0,4.399,0.363,6.173-2.271l0.17-0.251c-2.094-8.326-3.039-17.434-2.822-25.895c0.641-24.299,6.568-47.959,19.064-46.201
	c9.612,1.279,16.602,14.803,14.578,40.446c-1.264,15.357-7.287,23.576-16.26,34.446c2.725,5.436,5.869,13.567,10.653,13.833
	c5.522,0.307,10.257-1.234,14.435-5.211c-0.573-2.202-0.914-4.617-0.981-7.259c-0.32-14.708,10.093-31.333,25.472-31.333
	c8.812,0,16.021,6.554,15.861,16.146c-0.16,10.07-9.613,22.381-23.551,26.057c2.724,2.238,6.568,3.518,11.215,3.838
	c10.894,0.639,19.225-3.997,26.754-14.867c1.121-1.6,2.082-1.279,3.203-0.16c0.962,0.959,2.083,3.037,2.564,4.316
	C419.622,83.382,420.103,86.1,418.34,88.497z M36.204,78.423c-1.172-3.564-2.292-7.439-3.151-11.469
	c-3.657-3.564-6.604-3.435-8.778-3.435c-6.834,0-15.251,10.697-10.408,25.421c2.345,7.129,8.532,6.061,10.862,6.061
	c5.747,0,9.237-4.023,13.109-12.083C37.172,81.368,36.663,79.818,36.204,78.423z M47.863,17.359
	c-0.561-1.705-1.022-2.635-1.799-2.635c-0.466,0-0.985,0.31-1.662,1.084c-6.875,7.904-4.548,37.352-2.334,49.75
	c0.303,1.395,0.913,3.72,0.913,3.72C48.515,50.216,50.871,26.503,47.863,17.359z M178.621,14.771
	c-3.212,2.899-7.301,21.675-7.249,30.377C175.169,39.126,179.384,20.195,178.621,14.771z M231.896,14.771
	c-2.854,3.167-7.21,21.765-7.248,30.377C228.175,39.037,232.569,20.107,231.896,14.771z M277.925,45.148
	c3.351-6.288,7.832-24.953,7.248-30.377C282.318,17.938,277.786,36.624,277.925,45.148z M338.516,35.94
	c0.617-9.097-1.234-19.062-4.118-19.541c-2.563-0.479-5.607,12.31-6.408,29.895c-0.32,7.354-0.399,9.987,1.043,17.021
	C330.665,61.702,337.267,53.226,338.516,35.94z M386.14,62.44c-0.16-2.559-1.923-4.316-4.006-4.156
	c-5.928,0.319-11.854,8.792-11.854,18.543c0,0.8,0,1.6,0.16,2.238C381.173,75.389,386.3,67.235,386.14,62.44z M130.855,44.37
	c-3.831-0.132-9.246-3.295-9.246-9.886c0-6.458,5.548-8.831,8.718-8.699c4.755,0.132,8.85,4.086,8.718,9.753
	C138.913,41.075,135.479,44.502,130.855,44.37z"/>
</svg>
