<?xml version="1.0" encoding="iso-8859-1"?>
<!-- Generator: Adobe Illustrator 15.0.0, SVG Export Plug-In . SVG Version: 6.00 Build 0)  -->
<!DOCTYPE svg PUBLIC "-//W3C//DTD SVG 1.1//EN" "http://www.w3.org/Graphics/SVG/1.1/DTD/svg11.dtd">
<svg version="1.1" id="Layer_1" xmlns="http://www.w3.org/2000/svg" xmlns:xlink="http://www.w3.org/1999/xlink" x="0px" y="0px"
	 width="44.5px" height="43.675px" viewBox="0 0 44.5 43.675" style="enable-background:new 0 0 44.5 43.675;" xml:space="preserve"
	>
<g>
	<path style="fill:#BEBEBE;" d="M6.992,36.131c-3.694-4.018-5.542-8.766-5.542-14.243v-0.972c8.717-0.129,16.025-1.118,21.924-2.965
		c0.55,1.102,1.167,2.447,1.847,4.035c-0.713,0.194-1.248,0.357-1.604,0.486C16.941,24.837,11.399,29.391,6.992,36.131z
		 M21.916,15.082c-5.444,1.621-12.121,2.496-20.028,2.625c0.648-3.273,2.018-6.222,4.107-8.847c2.09-2.625,4.643-4.634,7.656-6.028
		C16.828,6.721,19.583,10.804,21.916,15.082z M30.715,41.187c-2.625,1.135-5.38,1.701-8.264,1.701
		c-4.894,0-9.236-1.507-13.028-4.521c4.472-7.032,10.127-11.504,16.965-13.417C28.267,29.909,29.709,35.321,30.715,41.187z
		 M25.367,13.916c-2.398-4.439-5.121-8.556-8.167-12.347c1.75-0.454,3.5-0.681,5.25-0.681c5.379,0,10.045,1.799,14,5.396
		C33.631,9.557,29.938,12.101,25.367,13.916z M43.451,21.791c-5.283-1.199-10.178-1.41-14.681-0.632
		c-0.26-0.681-0.908-2.155-1.944-4.424c4.829-1.944,8.782-4.667,11.862-8.167C41.799,12.36,43.385,16.768,43.451,21.791z
		 M43.207,25.047c-0.422,2.949-1.441,5.671-3.062,8.167c-1.621,2.496-3.662,4.554-6.125,6.174
		c-1.004-5.477-2.365-10.532-4.082-15.167C34.117,23.606,38.541,23.881,43.207,25.047z"/>
</g>
</svg>
