<?xml version="1.0" encoding="iso-8859-1"?>
<!-- Generator: Adobe Illustrator 15.0.0, SVG Export Plug-In . SVG Version: 6.00 Build 0)  -->
<!DOCTYPE svg PUBLIC "-//W3C//DTD SVG 1.1//EN" "http://www.w3.org/Graphics/SVG/1.1/DTD/svg11.dtd">
<svg version="1.1" id="Layer_1" xmlns="http://www.w3.org/2000/svg" xmlns:xlink="http://www.w3.org/1999/xlink" x="0px" y="0px"
	 width="44.5px" height="43.675px" viewBox="0 0 44.5 43.675" style="enable-background:new 0 0 44.5 43.675;" xml:space="preserve"
	>
<g>
	<path style="fill:#BEBEBE;" d="M43.451,21.888c0,5.639-1.953,10.484-5.857,14.535c-3.906,4.051-8.662,6.207-14.268,6.465V28.013h7
		v-6.125h-7v-4.375c0-0.712,0.17-1.329,0.51-1.847c0.34-0.518,0.753-0.778,1.24-0.778h5.25V8.763h-5.25
		c-2.171,0-4.027,0.859-5.566,2.576c-1.54,1.718-2.309,3.776-2.309,6.174v4.375h-5.25v6.125h5.25v14.194
		c-4.569-1.167-8.337-3.637-11.302-7.413c-2.965-3.775-4.448-8.077-4.448-12.906c0-5.801,2.049-10.75,6.149-14.851
		c4.099-4.1,9.049-6.149,14.851-6.149c5.801,0,10.75,2.05,14.85,6.149C41.4,11.137,43.451,16.087,43.451,21.888z"/>
</g>
</svg>
