<?xml version="1.0" encoding="iso-8859-1"?>
<!-- Generator: Adobe Illustrator 15.0.0, SVG Export Plug-In . SVG Version: 6.00 Build 0)  -->
<!DOCTYPE svg PUBLIC "-//W3C//DTD SVG 1.1//EN" "http://www.w3.org/Graphics/SVG/1.1/DTD/svg11.dtd">
<svg version="1.1" id="Calque_1" xmlns="http://www.w3.org/2000/svg" xmlns:xlink="http://www.w3.org/1999/xlink" x="0px" y="0px"
	 width="100px" height="100px" viewBox="0 0 100 100" style="enable-background:new 0 0 100 100;" xml:space="preserve">
<g>
	<path style="fill:#B3B4B4;" d="M74.05,67.585c-1.303,1.304-3.413,1.306-4.716,0l-5.057-5.058c-1.303-1.299-1.303-3.413,0-4.713l0,0
		c1.303-1.303,3.412-1.303,4.715-0.002l5.057,5.058C75.352,64.173,75.352,66.284,74.05,67.585L74.05,67.585z"/>
	<path style="fill:#B3B4B4;" d="M68.166,73.47c-1.303,1.304-3.559,1.158-5.037-0.321l-7.145-7.146
		c-1.479-1.479-1.625-3.734-0.321-5.036l0,0c1.301-1.302,3.558-1.157,5.035,0.323l7.147,7.141
		C69.326,69.91,69.469,72.167,68.166,73.47L68.166,73.47z"/>
	<path style="fill:#B3B4B4;" d="M62.283,79.354c-1.301,1.303-3.559,1.157-5.038-0.322l-6.113-6.116
		c-1.48-1.479-1.624-3.735-0.321-5.038l0,0c1.301-1.301,3.556-1.157,5.037,0.321l6.115,6.114
		C63.439,75.793,63.584,78.05,62.283,79.354L62.283,79.354z"/>
	<path style="fill:#B3B4B4;" d="M49.395,74.066l-0.167,0.17c0.083-0.021,0.164-0.051,0.248-0.064
		C49.445,74.141,49.423,74.102,49.395,74.066z"/>
	<path style="fill:#B3B4B4;" d="M56.402,85.232c-1.303,1.304-3.559,1.158-5.039-0.321l-2.817-2.817
		c-1.48-1.479-1.623-3.734-0.322-5.037l0,0c1.305-1.304,3.558-1.16,5.038,0.32l2.817,2.816
		C57.561,81.676,57.706,83.93,56.402,85.232L56.402,85.232z"/>
	<path style="fill:#B3B4B4;" d="M63.066,28.185l-10.105,0.004c-0.122,0-0.236,0.021-0.357,0.031H39.427
		c-1.721,0-4.118,1.003-5.326,2.23l-15.79,16.035c-1.208,1.226-1.2,3.225,0.016,4.442l7.306,7.306c1.216,1.217,3.208,1.217,4.424,0
		l21.507-21.507c0.787-0.788,2.072-1.478,3.348-1.871l8.154,0.002c2.093,0.001,3.789-1.492,3.789-3.334
		C66.855,29.68,65.159,28.185,63.066,28.185z"/>
	<path style="fill:#B3B4B4;" d="M34.254,23.347l-5.874-8.92c-1.218-1.218-3.209-1.218-4.428,0L2.949,35.024
		c-1.218,1.217-1.218,3.208,0,4.425l9.327,5.875c1.218,1.217,3.209,1.217,4.427,0l17.551-17.551
		C35.473,26.556,35.473,24.564,34.254,23.347z M10.769,40.953c-1.1,0-1.993-0.892-1.993-1.993s0.893-1.993,1.993-1.993
		s1.993,0.892,1.993,1.993S11.868,40.953,10.769,40.953z"/>
	<path style="fill:#B3B4B4;" d="M67.157,28.693l17.552,17.551c1.218,1.217,3.209,1.217,4.428,0l9.327-5.875
		c1.218-1.218,1.218-3.208,0-4.426L77.459,15.347c-1.219-1.217-3.209-1.217-4.428,0l-5.874,8.92
		C65.939,25.484,65.939,27.476,67.157,28.693z M88.65,39.88c0-1.101,0.894-1.993,1.992-1.993c1.1,0,1.994,0.892,1.994,1.993
		s-0.895,1.993-1.994,1.993C89.544,41.873,88.65,40.98,88.65,39.88z"/>
	<path style="fill:#B3B4B4;" d="M83.049,46.532L68.852,32.336c-0.194,1.178-0.785,2.283-1.727,3.11
		c-1.096,0.965-2.537,1.497-4.057,1.497l-7.823-0.002c-0.896,0.314-1.739,0.793-2.205,1.259L31.532,59.708
		c-0.794,0.794-1.808,1.282-2.902,1.448l-0.323,0.318c-1.303,1.303-1.303,3.412,0,4.715c1.301,1.304,3.414,1.306,4.715,0
		L45.4,53.843c0.169-0.169,0.403-0.274,0.662-0.274c0.519,0,0.938,0.418,0.938,0.937c0,0.259-0.104,0.494-0.275,0.665l0.007,0.007
		l-14.61,14.612c-1.48,1.48-1.624,3.732-0.322,5.038c1.301,1.301,3.558,1.157,5.037-0.323L51.464,59.91
		c0.171-0.171,0.404-0.277,0.663-0.277c0.52,0,0.938,0.422,0.938,0.938c0,0.26-0.105,0.494-0.276,0.664l0.004,0.002L38.479,75.55
		c-1.479,1.48-1.622,3.735-0.321,5.038c1.303,1.303,3.558,1.159,5.038-0.32l2.225-2.226c0.212-0.911,0.638-1.769,1.33-2.461
		c0.681-0.681,1.54-1.129,2.478-1.345l0.167-0.17c-0.904-1.022-1.464-2.28-1.549-3.604c-0.099-1.537,0.445-3.019,1.489-4.062
		c0.956-0.955,2.25-1.482,3.646-1.495c-0.174-0.56-0.295-1.134-0.295-1.716c0-1.42,0.533-2.732,1.504-3.701
		c0.966-0.965,2.279-1.498,3.697-1.498c1.209,0,2.411,0.402,3.432,1.117c0.205-1.043,0.717-2.002,1.484-2.77
		c1.022-1.021,2.383-1.587,3.832-1.587c1.447,0,2.809,0.563,3.832,1.589l4.165,4.164l8.416-8.574
		C84.533,50.446,84.533,48.017,83.049,46.532z"/>
</g>
</svg>
