<?xml version="1.0" encoding="iso-8859-1"?>
<!-- Generator: Adobe Illustrator 15.0.0, SVG Export Plug-In . SVG Version: 6.00 Build 0)  -->
<!DOCTYPE svg PUBLIC "-//W3C//DTD SVG 1.1//EN" "http://www.w3.org/Graphics/SVG/1.1/DTD/svg11.dtd">
<svg version="1.1" id="Home_svg" xmlns="http://www.w3.org/2000/svg" xmlns:xlink="http://www.w3.org/1999/xlink" x="0px" y="0px"
	 width="100px" height="100px" viewBox="0 0 100 100" style="enable-background:new 0 0 100 100;" xml:space="preserve">
<path style="fill:#B3B4B4;" d="M70.68,8.125H8.382c-4.46,0-8.108,3.65-8.108,8.109v30.891c0,4.459,3.649,8.107,8.108,8.107h7.594
	l10.469,10.47l10.468-10.47H70.68c4.461,0,8.108-3.647,8.108-8.107v-30.89C78.789,11.776,75.141,8.125,70.68,8.125z"/>
<path style="fill:#B3B4B4;" d="M91.617,34.297h-5.501v12.828c0,8.514-6.927,15.439-15.437,15.439h-30.73l-8.322,8.319l-5.183,5.183
	l-5.181-5.183l-0.053-0.051v2.463c0,4.461,3.651,8.109,8.109,8.109h33.768l10.47,10.469l10.469-10.469h7.594
	c4.46,0,8.109-3.648,8.109-8.109v-30.89C99.727,37.947,96.076,34.297,91.617,34.297z"/>
</svg>
