<?xml version="1.0" encoding="iso-8859-1"?>
<!-- Generator: Adobe Illustrator 15.0.0, SVG Export Plug-In . SVG Version: 6.00 Build 0)  -->
<!DOCTYPE svg PUBLIC "-//W3C//DTD SVG 1.1//EN" "http://www.w3.org/Graphics/SVG/1.1/DTD/svg11.dtd">
<svg version="1.1" id="Layer_1" xmlns="http://www.w3.org/2000/svg" xmlns:xlink="http://www.w3.org/1999/xlink" x="0px" y="0px"
	 width="720px" height="720px" viewBox="0 0 720 720" style="enable-background:new 0 0 720 720;" xml:space="preserve">
<g>
	<g>
		<polygon style="fill:#FFB600;" points="219.329,372.522 223.308,394.41 240.197,401.427 253.753,398.961 246.214,357.487 
			232.655,359.953 		"/>
		<path d="M287.246,329.518c-1.667-9.148-10.423-15.216-19.575-13.552c-5.102,0.928-9.244,4.063-11.625,8.244
			c-0.727,1.279-1.962,2.272-3.523,2.556c-1.562,0.284-3.07-0.209-4.2-1.151c-3.699-3.076-8.678-4.552-13.779-3.624
			c-9.149,1.664-15.214,10.427-13.55,19.575c1.664,9.148,10.425,15.217,19.572,13.555c3.933-0.716,7.296-2.744,9.718-5.546
			l8.804,48.418l12.361-2.251l-8.806-48.416c3.259,1.771,7.125,2.484,11.053,1.769C282.847,347.429,288.91,338.667,287.246,329.518z
			 M238.798,345.395c-3.778,0.687-7.396-1.819-8.082-5.597c-0.687-3.778,1.817-7.396,5.593-8.083
			c3.783-0.687,7.398,1.819,8.083,5.596C245.081,341.088,242.581,344.707,238.798,345.395z M263.843,333.774
			c-0.687-3.777,1.82-7.397,5.598-8.085c3.776-0.687,7.398,1.819,8.085,5.596c0.687,3.781-1.82,7.399-5.598,8.086
			C268.152,340.058,264.529,337.553,263.843,333.774z"/>
		<polygon points="217.344,391.933 214.62,376.96 204.436,386.568 		"/>
		<path style="fill:#FFB600;" d="M282.82,350.829l-13.58,2.471l7.542,41.471l13.58-2.468c7.07-1.285,11.114-11.611,9.031-23.066
			C297.312,357.785,289.893,349.542,282.82,350.829z"/>
	</g>
	<g>
		<path d="M331.173,368.93v28.221c0,4.357-3.215,7.158-6.949,7.158c-3.736,0-6.954-2.801-6.954-7.158v-63.081
			c0-4.357,3.217-7.158,6.954-7.158c3.734,0,6.949,2.801,6.949,7.158v23.863h18.262v-23.863c0-4.357,3.215-7.158,6.949-7.158
			c3.736,0,6.954,2.801,6.954,7.158v63.081c0,4.357-3.218,7.158-6.954,7.158c-3.734,0-6.949-2.801-6.949-7.158V368.93H331.173z"/>
		<path d="M370.99,353.056c0-5.188,2.492-7.573,6.331-7.573s6.33,2.386,6.33,7.573v34.342c0,4.15,1.761,5.914,4.873,5.914
			c4.463,0,6.643-3.009,6.643-10.064v-30.192c0-5.188,2.489-7.573,6.327-7.573c3.839,0,6.33,2.386,6.33,7.573v43.68
			c0,5.188-2.491,7.572-6.33,7.572c-3.838,0-6.327-2.385-6.327-7.263h-0.207c-2.075,4.878-6.953,7.263-11.828,7.263
			c-7.056,0-12.142-4.357-12.142-13.902V353.056z"/>
		<path d="M415.292,353.056c0-5.188,2.489-7.573,6.328-7.573c3.838,0,6.327,2.386,6.327,7.262h0.209
			c2.075-4.876,6.952-7.262,11.828-7.262c7.054,0,12.139,4.357,12.139,13.903v37.351c0,5.188-2.491,7.572-6.327,7.572
			c-3.841,0-6.33-2.385-6.33-7.572v-34.342c0-4.15-2.181-5.914-4.877-5.914c-4.047,0-6.642,3.008-6.642,10.062v30.193
			c0,5.188-2.489,7.572-6.327,7.572c-3.839,0-6.328-2.385-6.328-7.572V353.056z"/>
		<path d="M459.665,353.056c0-5.188,2.489-7.573,6.33-7.573c3.838,0,6.327,2.386,6.327,7.573v43.68c0,5.188-2.489,7.572-6.327,7.572
			c-3.841,0-6.33-2.385-6.33-7.572V353.056z"/>
		<path d="M478.629,369.034c0-14.318,2.075-23.551,19.297-23.551c13.177,0,17.639,7.366,17.639,22.097
			c0,5.086-0.623,9.026-7.056,9.026h-16.602v5.709c0,6.741,0.521,12.034,5.709,12.034c2.696,0,4.771-2.801,4.877-5.812
			c0.207-5.497,2.696-6.744,6.223-6.744c3.736,0,6.433,1.247,6.433,6.226c0,10.168-6.952,16.289-17.223,16.289
			c-17.222,0-19.297-9.233-19.297-23.55V369.034z M502.907,367.685v-4.669c0-4.252-1.35-7.574-5.5-7.574s-5.5,3.321-5.5,7.574v4.669
			H502.907z"/>
	</g>
</g>
</svg>
