<?xml version="1.0" encoding="iso-8859-1"?>
<!-- Generator: Adobe Illustrator 15.0.0, SVG Export Plug-In . SVG Version: 6.00 Build 0)  -->
<!DOCTYPE svg PUBLIC "-//W3C//DTD SVG 1.1//EN" "http://www.w3.org/Graphics/SVG/1.1/DTD/svg11.dtd">
<svg version="1.1" id="Layer_1" xmlns="http://www.w3.org/2000/svg" xmlns:xlink="http://www.w3.org/1999/xlink" x="0px" y="0px"
	 width="44.5px" height="43.675px" viewBox="0 0 44.5 43.675" style="enable-background:new 0 0 44.5 43.675;" xml:space="preserve"
	>
<g>
	<circle style="fill:#020202;" cx="27.443" cy="14.114" r="1.955"/>
	<circle style="fill:#020202;" cx="18.128" cy="15.807" r="1.954"/>
	<path style="fill:#020202;" d="M22.244,0.188C10.51,0.188,1,9.699,1,21.432c0,11.731,9.51,21.243,21.244,21.243
		c11.73,0,21.242-9.512,21.242-21.243C43.486,9.699,33.975,0.188,22.244,0.188z M8.818,29.306l2.863-2.701l0.765,4.209L8.818,29.306
		z M18.873,33.483l-4.75-1.974l-1.118-6.153l3.746-3.533l3.812-0.694l2.12,11.66L18.873,33.483z M24.184,32.518l-2.475-13.612
		c-0.681,0.787-1.628,1.357-2.733,1.558c-2.572,0.467-5.035-1.238-5.501-3.81c-0.469-2.572,1.236-5.037,3.809-5.504
		c1.434-0.26,2.834,0.154,3.874,1.018c0.317,0.266,0.741,0.405,1.18,0.325c0.439-0.08,0.786-0.359,0.99-0.718
		c0.67-1.176,1.834-2.057,3.268-2.318c2.572-0.467,5.035,1.239,5.504,3.811c0.467,2.572-1.236,5.035-3.81,5.504
		c-1.104,0.201-2.19,0-3.106-0.498l2.477,13.612L24.184,32.518z M32.977,30.917l-3.818,0.694l-2.121-11.66l3.816-0.694
		c1.988-0.363,4.074,1.955,4.66,5.174C36.1,27.654,34.962,30.557,32.977,30.917z"/>
</g>
</svg>
