<?xml version="1.0" encoding="iso-8859-1"?>
<!-- Generator: Adobe Illustrator 15.0.0, SVG Export Plug-In . SVG Version: 6.00 Build 0)  -->
<!DOCTYPE svg PUBLIC "-//W3C//DTD SVG 1.1//EN" "http://www.w3.org/Graphics/SVG/1.1/DTD/svg11.dtd">
<svg version="1.1" id="Layer_1" xmlns="http://www.w3.org/2000/svg" xmlns:xlink="http://www.w3.org/1999/xlink" x="0px" y="0px"
	 width="100px" height="68px" viewBox="0 16.167 100 68" style="enable-background:new 0 16.167 100 68;" xml:space="preserve">
<path style="fill:#B3B4B4;" d="M87.397,35.871c-4.095-4.007-8.188-6.011-12.966-6.011l-4.776-7.681
	c-2.396-2.447-3.412-5.343-7.507-5.343c-8.873,0-8.359,10.686-8.359,10.686c0,0.155,0,0.314,0,0.468h-7.578c0-0.154,0-0.313,0-0.468
	c0,0,0.517-10.686-8.356-10.686c-4.096,0-5.11,2.896-7.507,5.343l-4.777,7.681c-4.777,0-8.873,2.004-12.967,6.011
	c0,0-11.703,12.357-11.703,25.201c0,12.181,10.126,22.091,22.573,22.091c10.446,0,19.254-6.98,21.818-16.423h9.418
	c2.562,9.442,11.372,16.423,21.816,16.423c12.45,0,22.574-9.91,22.574-22.091C99.099,48.228,87.397,35.871,87.397,35.871z
	 M23.473,76.487c-8.683,0-15.749-6.916-15.749-15.415c0-8.5,7.064-15.413,15.749-15.413s15.75,6.913,15.75,15.413
	C39.223,69.571,32.158,76.487,23.473,76.487z M76.526,76.487c-8.683,0-15.748-6.916-15.748-15.415c0-8.5,7.063-15.413,15.748-15.413
	s15.75,6.913,15.75,15.413C92.274,69.571,85.211,76.487,76.526,76.487z"/>
<circle style="fill:#FFFFFF;" cx="49.928" cy="44.838" r="5.146"/>
</svg>
