<?xml version="1.0" encoding="iso-8859-1"?>
<!-- Generator: Adobe Illustrator 15.0.0, SVG Export Plug-In . SVG Version: 6.00 Build 0)  -->
<!DOCTYPE svg PUBLIC "-//W3C//DTD SVG 1.1//EN" "http://www.w3.org/Graphics/SVG/1.1/DTD/svg11.dtd">
<svg version="1.1" id="Layer_1" xmlns="http://www.w3.org/2000/svg" xmlns:xlink="http://www.w3.org/1999/xlink" x="0px" y="0px"
	 width="232px" height="118px" viewBox="0 0 232 118" style="enable-background:new 0 0 232 118;" xml:space="preserve">
<g>
	<g>
		<line style="fill:none;stroke:#B2B3B3;stroke-width:3;stroke-miterlimit:10;" x1="27.061" y1="67.02" x2="27.061" y2="62.02"/>
		
			<line style="fill:none;stroke:#B2B3B3;stroke-width:3;stroke-miterlimit:10;stroke-dasharray:10.218,10.218;" x1="27.061" y1="51.802" x2="27.061" y2="16.039"/>
		<polyline style="fill:none;stroke:#B2B3B3;stroke-width:3;stroke-miterlimit:10;" points="27.061,10.93 27.061,5.93 32.061,5.93 
					"/>
		
			<line style="fill:none;stroke:#B2B3B3;stroke-width:3;stroke-miterlimit:10;stroke-dasharray:10.1203,10.1203;" x1="42.181" y1="5.93" x2="199.046" y2="5.93"/>
		<polyline style="fill:none;stroke:#B2B3B3;stroke-width:3;stroke-miterlimit:10;" points="204.106,5.93 209.106,5.93 
			209.106,10.93 		"/>
		
			<line style="fill:none;stroke:#B2B3B3;stroke-width:3;stroke-miterlimit:10;stroke-dasharray:9.3357,9.3357;" x1="209.106" y1="20.266" x2="209.106" y2="52.94"/>
		
			<line style="fill:none;stroke:#B2B3B3;stroke-width:3;stroke-miterlimit:10;" x1="209.106" y1="57.608" x2="209.106" y2="62.608"/>
	</g>
</g>
<path style="fill:#B2B3B3;" d="M227.305,91.334c0.015-0.073-0.506-3.888-0.512-3.965c0,0-0.97-2.46-2.501-2.709
	c-1.533-0.253-3.502-0.787-4.325-1.41c-0.482-0.365-2.05-0.999-2.777-1.263c-0.338-0.123-0.918-1.125-1.118-1.578
	s-1.584-1.368-1.937-1.419l-0.055-1.886l4.001-1.244c0,0,1.031-0.478,1.132-0.478c0.102,0-0.478-0.759-0.554-0.962
	c-0.074-0.201-0.451-1.578-0.451-1.578s1.352,1.653,2.036,1.963c0,0-1.346-2.528-1.747-3.935c-0.401-1.409-0.667-3.607-0.667-3.809
	s-0.829-6.107-1.28-7.088c-0.454-0.982-1.067-2.312-2.119-2.967c-1.05-0.653-2.608-1.584-4.845-1.709
	c-0.035-0.001-0.068-0.001-0.102-0.004c-0.033,0.002-0.066,0.002-0.101,0.004c-2.236,0.125-3.793,1.056-4.845,1.709
	c-1.049,0.653-1.664,1.984-2.116,2.967c-0.452,0.98-1.282,6.887-1.282,7.088s-0.234,2.49-0.638,3.896
	c-0.401,1.408-1.775,3.847-1.775,3.847c0.686-0.31,2.035-1.963,2.035-1.963s-0.487,1.511-0.562,1.712
	c-0.077,0.202-0.543,0.828-0.441,0.828c0.1,0,1.131,0.478,1.131,0.478l4.003,1.244l-0.057,1.886
	c-0.352,0.051-1.734,0.968-1.935,1.419c-0.203,0.453-0.781,1.455-1.12,1.578c-0.728,0.264-2.294,0.897-2.776,1.263
	c-0.824,0.623-2.79,1.157-4.323,1.41c-1.534,0.249-2.502,2.538-2.502,2.538c-0.006,0.077-0.524,4.062-0.512,4.136H227.305z"/>
<path style="fill:#B2B3B3;" d="M6.761,91.015v-3.67c0,0,0.239-2.253,2.952-2.952c0,0,4.37-1.595,7.792-3.086
	c1.77-0.769,2.15-1.232,3.936-2.021c0,0,0.187-0.916,0.119-1.462h1.396c0,0,0.319,0.187,0-1.969c0,0-1.702-0.452-1.781-3.883
	c0,0-1.279,0.432-1.356-1.648c-0.054-1.409-1.144-2.634,0.425-3.644l-0.798-2.154c0,0-1.596-8.695,2.992-7.419
	c-1.935-2.313,10.97-4.627,11.808,2.712c0,0,0.598,3.963,0,6.676c0,0,1.885-0.218,0.625,3.405c0,0-0.691,2.605-1.755,2.021
	c0,0,0.174,3.298-1.501,3.855c0,0,0.119,1.756,0.119,1.875l1.596,0.239c0,0-0.24,1.438,0.04,1.596c0,0,1.892,1.296,4.148,1.876
	c4.349,1.115,9.494,3.031,9.494,4.706c0,0,0.439,2.234,0.439,4.946H6.761z"/>
<path style="fill:#B2B3B3;" d="M167.187,63.252l-33.978-7.482l13.378-20.937l-20.938,13.376l-7.481-33.977l-7.482,33.977
	L89.748,34.833l13.376,20.937l-33.977,7.482l33.977,7.482L89.748,91.67l20.937-13.377l7.482,33.979l7.481-33.977l20.937,13.377
	l-13.376-20.938L167.187,63.252L167.187,63.252z M139.679,41.741L139.679,41.741l-8.656,13.548l-4.01-0.884L139.679,41.741
	L139.679,41.741z M96.654,41.74l13.549,8.656l-0.883,4.01L96.654,41.74L96.654,41.74z M96.655,84.764l8.655-13.549l4.01,0.883
	L96.655,84.764L96.655,84.764z M125.251,70.336L125.251,70.336l-7.084-7.084v39.244l-7.083-32.162l7.083-7.082H78.923l32.161-7.083
	l7.083,7.083V24.008l7.084,32.161l-7.084,7.083h39.244 M139.68,84.766l-13.55-8.658l0.883-4.01L139.68,84.766L139.68,84.766z"/>
</svg>
