<?xml version="1.0" encoding="iso-8859-1"?>
<!-- Generator: Adobe Illustrator 15.0.0, SVG Export Plug-In . SVG Version: 6.00 Build 0)  -->
<!DOCTYPE svg PUBLIC "-//W3C//DTD SVG 1.1//EN" "http://www.w3.org/Graphics/SVG/1.1/DTD/svg11.dtd">
<svg version="1.1" id="Layer_1" xmlns="http://www.w3.org/2000/svg" xmlns:xlink="http://www.w3.org/1999/xlink" x="0px" y="0px"
	 width="435.333px" height="119.333px" viewBox="0 0 435.333 119.333" style="enable-background:new 0 0 435.333 119.333;"
	 xml:space="preserve">
<g>
	<g>
		<g>
			<polygon style="fill:#FFB600;" points="135.383,61.189 139.362,83.077 156.251,90.094 169.808,87.628 162.268,46.154 
				148.709,48.62 			"/>
			<path d="M203.3,18.185c-1.667-9.148-10.423-15.216-19.575-13.552c-5.102,0.928-9.244,4.063-11.625,8.244
				c-0.727,1.279-1.962,2.272-3.523,2.556c-1.562,0.284-3.07-0.209-4.2-1.151c-3.699-3.076-8.678-4.552-13.779-3.624
				c-9.149,1.664-15.214,10.427-13.55,19.575c1.664,9.148,10.425,15.217,19.572,13.555c3.933-0.716,7.296-2.744,9.718-5.546
				l8.804,48.418l12.361-2.251l-8.806-48.416c3.259,1.771,7.125,2.484,11.053,1.769C198.901,36.096,204.964,27.334,203.3,18.185z
				 M154.852,34.062c-3.778,0.687-7.396-1.819-8.082-5.597c-0.687-3.778,1.817-7.396,5.593-8.083
				c3.783-0.687,7.398,1.819,8.083,5.596C161.135,29.755,158.635,33.374,154.852,34.062z M179.897,22.441
				c-0.687-3.777,1.82-7.397,5.598-8.085c3.776-0.687,7.398,1.819,8.085,5.596c0.687,3.781-1.82,7.399-5.598,8.086
				C184.207,28.725,180.583,26.22,179.897,22.441z"/>
			<polygon points="133.398,80.6 130.674,65.627 120.49,75.235 			"/>
			<path style="fill:#FFB600;" d="M198.875,39.496l-13.58,2.471l7.542,41.471l13.58-2.468c7.07-1.285,11.114-11.611,9.031-23.066
				C213.367,46.452,205.947,38.209,198.875,39.496z"/>
		</g>
		<g>
			<path d="M247.228,57.597v28.221c0,4.357-3.215,7.158-6.948,7.158c-3.736,0-6.954-2.801-6.954-7.158V22.736
				c0-4.357,3.218-7.158,6.954-7.158c3.733,0,6.948,2.801,6.948,7.158V46.6h18.263V22.736c0-4.357,3.215-7.158,6.948-7.158
				c3.736,0,6.954,2.801,6.954,7.158v63.081c0,4.357-3.218,7.158-6.954,7.158c-3.733,0-6.948-2.801-6.948-7.158V57.597H247.228z"/>
			<path d="M287.045,41.723c0-5.188,2.492-7.573,6.331-7.573s6.33,2.386,6.33,7.573v34.342c0,4.15,1.761,5.914,4.873,5.914
				c4.463,0,6.643-3.009,6.643-10.064V41.723c0-5.188,2.489-7.573,6.327-7.573c3.839,0,6.33,2.386,6.33,7.573v43.68
				c0,5.188-2.491,7.572-6.33,7.572c-3.838,0-6.327-2.385-6.327-7.263h-0.207c-2.075,4.878-6.953,7.263-11.828,7.263
				c-7.056,0-12.142-4.357-12.142-13.902V41.723z"/>
			<path d="M331.347,41.723c0-5.188,2.489-7.573,6.328-7.573c3.838,0,6.327,2.386,6.327,7.262h0.209
				c2.075-4.876,6.952-7.262,11.828-7.262c7.054,0,12.139,4.357,12.139,13.903v37.351c0,5.188-2.491,7.572-6.327,7.572
				c-3.841,0-6.33-2.385-6.33-7.572V51.062c0-4.15-2.181-5.914-4.877-5.914c-4.047,0-6.642,3.008-6.642,10.062v30.193
				c0,5.188-2.489,7.572-6.327,7.572c-3.839,0-6.328-2.385-6.328-7.572V41.723z"/>
			<path d="M375.72,41.723c0-5.188,2.488-7.573,6.33-7.573c3.838,0,6.326,2.386,6.326,7.573v43.68c0,5.188-2.488,7.572-6.326,7.572
				c-3.842,0-6.33-2.385-6.33-7.572V41.723z"/>
			<path d="M394.683,57.701c0-14.318,2.076-23.551,19.297-23.551c13.178,0,17.639,7.366,17.639,22.097
				c0,5.086-0.623,9.026-7.055,9.026h-16.602v5.709c0,6.741,0.521,12.034,5.709,12.034c2.695,0,4.771-2.801,4.877-5.812
				c0.207-5.497,2.695-6.744,6.223-6.744c3.736,0,6.432,1.247,6.432,6.226c0,10.168-6.951,16.289-17.223,16.289
				c-17.221,0-19.297-9.233-19.297-23.55V57.701z M418.962,56.352v-4.669c0-4.252-1.35-7.574-5.5-7.574s-5.5,3.321-5.5,7.574v4.669
				H418.962z"/>
		</g>
	</g>
	
		<path style="opacity:0.5;fill:none;stroke:#000000;stroke-width:2;stroke-linecap:round;stroke-linejoin:round;stroke-dasharray:15;" d="
		M115.714,76.334c0,0-38.667,14.667-61.333,2.667s-8.667-48,16-48c36.667,0,47.333,69.333-68.667,84"/>
</g>
</svg>
