<?xml version="1.0" encoding="iso-8859-1"?>
<!-- Generator: Adobe Illustrator 15.0.0, SVG Export Plug-In . SVG Version: 6.00 Build 0)  -->
<!DOCTYPE svg PUBLIC "-//W3C//DTD SVG 1.1//EN" "http://www.w3.org/Graphics/SVG/1.1/DTD/svg11.dtd">
<svg version="1.1" id="icon" xmlns="http://www.w3.org/2000/svg" xmlns:xlink="http://www.w3.org/1999/xlink" x="0px" y="0px"
	 width="94.402px" height="52.667px" viewBox="2.167 23.167 94.402 52.667"
	 style="enable-background:new 2.167 23.167 94.402 52.667;" xml:space="preserve">
<path style="fill:none;" d="M33.539,44.746c-0.455,1.521-0.703,3.13-0.703,4.798c0,9.253,7.528,16.78,16.781,16.78
	c9.252,0,16.78-7.527,16.78-16.78s-7.527-16.782-16.78-16.782c-3.979,0-7.636,1.394-10.515,3.716"/>
<path style="fill:none;" d="M42.068,40.308c2.104-1.777,4.823-2.851,7.792-2.851c6.676,0,12.086,5.411,12.086,12.087
	c0,6.675-5.41,12.087-12.086,12.087c-6.674,0-12.086-5.412-12.086-12.087c0-1.19,0.175-2.34,0.496-3.426"/>
<path style="fill:#B2B3B3;" d="M49.861,61.631c6.676,0,12.086-5.412,12.086-12.087c0-6.676-5.41-12.087-12.086-12.087
	c-2.97,0-5.688,1.074-7.792,2.851l6.904,8.912l-10.701-3.102c-0.321,1.086-0.496,2.236-0.496,3.426
	C37.774,56.219,43.188,61.631,49.861,61.631z"/>
<path style="fill:#B2B3B3;" d="M93.266,48.044C82.248,33.081,65.881,24.5,48.359,24.5c-16.744,0-32.641,7.963-43.614,21.848
	l-1.579,1.998l1.51,2.05c11.019,14.964,27.386,23.544,44.906,23.544c16.744,0,32.642-7.963,43.615-21.848l1.58-1.998L93.266,48.044z
	 M49.617,66.324c-9.253,0-16.781-7.527-16.781-16.78c0-1.668,0.248-3.277,0.703-4.798l-3.846-1.116
	c-0.558,1.876-0.862,3.859-0.862,5.914c0,6.265,2.798,11.878,7.197,15.69c-9.327-2.842-17.789-8.594-24.389-16.745
	c6.763-7.775,15.339-13.18,24.667-15.7l0.347,0.524l2.451,3.164c2.879-2.322,6.536-3.716,10.515-3.716
	c9.252,0,16.78,7.528,16.78,16.782C66.396,58.797,58.869,66.324,49.617,66.324z M63.285,65.164c4.352-3.812,7.117-9.395,7.117-15.62
	c0-6.453-2.957-12.228-7.584-16.043c8.969,2.933,17.1,8.561,23.486,16.448C79.943,57.264,71.975,62.473,63.285,65.164z"/>
</svg>
