<?xml version="1.0" encoding="iso-8859-1"?>
<!-- Generator: Adobe Illustrator 15.0.0, SVG Export Plug-In . SVG Version: 6.00 Build 0)  -->
<!DOCTYPE svg PUBLIC "-//W3C//DTD SVG 1.1//EN" "http://www.w3.org/Graphics/SVG/1.1/DTD/svg11.dtd">
<svg version="1.1" id="Layer_1" xmlns="http://www.w3.org/2000/svg" xmlns:xlink="http://www.w3.org/1999/xlink" x="0px" y="0px"
	 width="189.344px" height="132.787px" viewBox="0 0 189.344 132.787" style="enable-background:new 0 0 189.344 132.787;"
	 xml:space="preserve">
<polygon style="fill:#B3B3B3;" points="41.483,65.529 91.483,78.029 141.483,65.529 141.483,78.029 91.483,90.529 41.483,78.029 "/>
<polygon style="fill:#B3B3B3;" points="41.483,90.529 91.483,103.029 141.483,90.529 141.483,103.029 91.483,115.529 
	41.483,103.029 "/>
<polygon style="fill:#B3B3B3;" points="41.483,40.529 91.483,28.029 141.483,40.529 141.483,53.029 91.483,65.529 41.483,53.029 "/>
<g>
	<path style="fill:#B3B3B3;" d="M41.165,5.119l-2.431,9.684h-2.88l-2.502-9.684h2.592l1.387,6.93h0.035l1.314-6.93H41.165z"/>
	<path style="fill:#B3B3B3;" d="M44.395,12.778c0.187,0.39,0.562,0.585,1.125,0.585c0.312,0,0.562-0.054,0.747-0.162
		c0.187-0.108,0.33-0.255,0.433-0.441c0.102-0.186,0.168-0.405,0.197-0.657c0.03-0.252,0.046-0.516,0.046-0.792
		c0-0.288-0.021-0.561-0.063-0.819c-0.042-0.258-0.123-0.489-0.243-0.693s-0.288-0.366-0.504-0.486
		c-0.216-0.12-0.504-0.18-0.864-0.18h-0.863V7.441h0.846c0.275,0,0.507-0.057,0.693-0.171c0.186-0.114,0.335-0.264,0.449-0.45
		s0.198-0.399,0.252-0.639c0.055-0.24,0.081-0.492,0.081-0.756c0-0.612-0.102-1.044-0.306-1.296s-0.516-0.378-0.936-0.378
		c-0.276,0-0.502,0.051-0.676,0.153S44.5,4.15,44.405,4.336c-0.097,0.186-0.159,0.405-0.189,0.657S44.17,5.521,44.17,5.821h-2.376
		c0-1.272,0.317-2.217,0.954-2.835c0.636-0.618,1.565-0.927,2.79-0.927c1.164,0,2.066,0.264,2.709,0.792
		c0.642,0.528,0.963,1.356,0.963,2.484c0,0.768-0.171,1.395-0.513,1.881c-0.343,0.486-0.819,0.795-1.432,0.927v0.036
		c0.828,0.132,1.413,0.465,1.755,0.999c0.343,0.534,0.514,1.203,0.514,2.007c0,0.432-0.055,0.876-0.162,1.332
		c-0.108,0.457-0.318,0.87-0.63,1.242c-0.312,0.372-0.741,0.672-1.287,0.9c-0.546,0.228-1.264,0.342-2.151,0.342
		c-1.236,0-2.16-0.336-2.771-1.008c-0.612-0.672-0.918-1.626-0.918-2.862v-0.054h2.483C44.11,11.821,44.209,12.388,44.395,12.778z"
		/>
</g>
<g>
	<path style="fill:#B3B3B3;" d="M10.837,120.693l-2.431,9.684h-2.88l-2.502-9.684h2.592l1.387,6.93h0.035l1.314-6.93H10.837z"/>
	<path style="fill:#B3B3B3;" d="M14.067,128.351c0.187,0.391,0.562,0.586,1.125,0.586c0.312,0,0.562-0.055,0.747-0.162
		c0.187-0.108,0.33-0.256,0.433-0.441c0.102-0.186,0.168-0.405,0.197-0.657c0.03-0.252,0.046-0.516,0.046-0.792
		c0-0.287-0.021-0.561-0.063-0.818s-0.123-0.489-0.243-0.693s-0.288-0.366-0.504-0.486c-0.216-0.119-0.504-0.18-0.864-0.18h-0.863
		v-1.691h0.846c0.275,0,0.507-0.058,0.693-0.172c0.186-0.113,0.335-0.264,0.449-0.449c0.114-0.187,0.198-0.399,0.252-0.64
		c0.055-0.239,0.081-0.491,0.081-0.756c0-0.612-0.102-1.044-0.306-1.296s-0.516-0.378-0.936-0.378c-0.276,0-0.502,0.051-0.676,0.153
		c-0.174,0.102-0.309,0.246-0.404,0.432c-0.097,0.186-0.159,0.404-0.189,0.656s-0.045,0.529-0.045,0.828h-2.376
		c0-1.271,0.317-2.217,0.954-2.834c0.636-0.619,1.565-0.928,2.79-0.928c1.164,0,2.066,0.264,2.709,0.792
		c0.642,0.528,0.963,1.356,0.963,2.484c0,0.769-0.171,1.395-0.513,1.881c-0.343,0.485-0.819,0.795-1.432,0.927v0.036
		c0.828,0.132,1.413,0.466,1.755,0.999c0.343,0.534,0.514,1.203,0.514,2.007c0,0.433-0.055,0.876-0.162,1.332
		c-0.108,0.456-0.318,0.87-0.63,1.242c-0.312,0.372-0.741,0.673-1.287,0.899c-0.546,0.229-1.264,0.343-2.151,0.343
		c-1.236,0-2.16-0.336-2.771-1.009c-0.612-0.672-0.918-1.625-0.918-2.861v-0.055h2.483
		C13.782,127.394,13.882,127.961,14.067,128.351z"/>
</g>
<g>
	<path style="fill:#B3B3B3;" d="M178.87,65.775l-2.432,9.684h-2.879l-2.502-9.684h2.592l1.387,6.93h0.035l1.314-6.93H178.87z"/>
	<path style="fill:#B3B3B3;" d="M182.101,73.434c0.186,0.39,0.561,0.585,1.125,0.585c0.312,0,0.561-0.055,0.746-0.162
		c0.188-0.107,0.33-0.255,0.434-0.441c0.102-0.186,0.168-0.405,0.197-0.657s0.045-0.516,0.045-0.792
		c0-0.288-0.021-0.561-0.062-0.819c-0.043-0.258-0.123-0.489-0.244-0.693c-0.119-0.204-0.287-0.366-0.504-0.486
		c-0.215-0.12-0.504-0.18-0.863-0.18h-0.863v-1.692h0.846c0.275,0,0.506-0.057,0.693-0.171c0.186-0.114,0.334-0.264,0.449-0.45
		c0.113-0.186,0.197-0.399,0.252-0.639c0.055-0.24,0.08-0.492,0.08-0.756c0-0.612-0.102-1.044-0.305-1.296
		c-0.205-0.252-0.516-0.378-0.936-0.378c-0.277,0-0.502,0.051-0.676,0.153s-0.309,0.246-0.404,0.432
		c-0.098,0.186-0.16,0.405-0.189,0.657c-0.031,0.252-0.045,0.528-0.045,0.828h-2.377c0-1.272,0.318-2.217,0.955-2.835
		c0.635-0.618,1.564-0.927,2.789-0.927c1.164,0,2.066,0.264,2.709,0.792c0.643,0.528,0.963,1.356,0.963,2.484
		c0,0.768-0.17,1.395-0.512,1.881c-0.344,0.486-0.82,0.795-1.432,0.927v0.036c0.828,0.132,1.412,0.465,1.754,0.999
		c0.344,0.534,0.514,1.203,0.514,2.007c0,0.432-0.055,0.876-0.162,1.332c-0.107,0.457-0.318,0.87-0.629,1.243
		c-0.312,0.371-0.742,0.672-1.287,0.899c-0.547,0.228-1.264,0.343-2.152,0.343c-1.236,0-2.16-0.336-2.771-1.009
		c-0.611-0.672-0.918-1.626-0.918-2.862v-0.054h2.484C181.815,72.477,181.915,73.044,182.101,73.434z"/>
</g>
<line style="fill:none;stroke:#B2B3B4;stroke-width:3;stroke-miterlimit:10;" x1="62.114" y1="31.606" x2="50.229" y2="19.721"/>
<line style="fill:none;stroke:#B2B3B4;stroke-width:3;stroke-miterlimit:10;" x1="146.901" y1="72.771" x2="164.935" y2="72.771"/>
<line style="fill:none;stroke:#B2B3B4;stroke-width:3;stroke-miterlimit:10;" x1="35.426" y1="102.918" x2="22.312" y2="116.033"/>
</svg>
