<?xml version="1.0" encoding="iso-8859-1"?>
<!-- Generator: Adobe Illustrator 15.0.0, SVG Export Plug-In . SVG Version: 6.00 Build 0)  -->
<!DOCTYPE svg PUBLIC "-//W3C//DTD SVG 1.1//EN" "http://www.w3.org/Graphics/SVG/1.1/DTD/svg11.dtd">
<svg version="1.1" id="Your_Icon" xmlns="http://www.w3.org/2000/svg" xmlns:xlink="http://www.w3.org/1999/xlink" x="0px" y="0px"
	 width="100px" height="100px" viewBox="0 0 100 100" style="enable-background:new 0 0 100 100;" xml:space="preserve">
<g>
	<path style="fill:#B3B4B4;" d="M41.494,37.142c0,3.179,1.506,4.696,6.506,5.778V31.147C45,31.147,41.494,33.168,41.494,37.142z"/>
	<path style="fill:#B3B4B4;" d="M52,54.408v13.869c4-0.361,7.807-2.454,7.807-7.079C59.807,57.37,58,55.996,52,54.408z"/>
	<path style="fill:#B3B4B4;" d="M89.507,56.26L100,50l-10.493-6.257l8.048-9.194l-11.914-2.708l4.81-11.23l-12.168,1.106
		l1.108-12.169L68.16,14.36L65.45,2.446l-9.188,8.047L50,0l-6.257,10.493l-9.194-8.047L31.841,14.36L20.61,9.548l1.106,12.168
		L9.548,20.61l4.812,11.23L2.446,34.548l8.047,9.194L0,50l10.493,6.26l-8.047,9.189l11.914,2.71L9.548,79.391l12.168-1.108
		L20.61,90.449l11.23-4.811l2.708,11.914l9.194-8.047L50,100l6.26-10.493l9.189,8.048l2.71-11.914l11.229,4.81l-1.107-12.168
		l12.168,1.108l-4.811-11.23l11.914-2.71L89.507,56.26z M52,76.732V83h-4v-6.268C37,75.934,30.927,70,29.846,59h10.259
		C40.027,64,43,67.41,48,68.277v-15.1c-1-0.214-1.459-0.432-2.396-0.648c-7.224-1.95-14.411-4.767-14.411-14.375
		C31.194,28.257,39,23.202,48,22.696V17h4v5.696C61,23.633,67.766,28,68.352,38h-10.26C58.016,34,55,31.147,52,31.147v12.784
		c1,0.289,2.434,0.582,3.734,0.939c14.088,3.903,14.352,11.92,14.352,16.762C70.086,65.75,66,75.79,52,76.732z"/>
</g>
</svg>
