<?xml version="1.0" encoding="iso-8859-1"?>
<!-- Generator: Adobe Illustrator 15.0.0, SVG Export Plug-In . SVG Version: 6.00 Build 0)  -->
<!DOCTYPE svg PUBLIC "-//W3C//DTD SVG 1.1//EN" "http://www.w3.org/Graphics/SVG/1.1/DTD/svg11.dtd">
<svg version="1.1" id="Layer_1" xmlns="http://www.w3.org/2000/svg" xmlns:xlink="http://www.w3.org/1999/xlink" x="0px" y="0px"
	 width="44.5px" height="43.675px" viewBox="0 0 44.5 43.675" style="enable-background:new 0 0 44.5 43.675;" xml:space="preserve"
	>
<g>
	<path style="fill:#BEBEBE;" d="M7.6,7.037c4.099-4.1,9.049-6.149,14.851-6.149c5.801,0,10.75,2.05,14.85,6.149
		c4.1,4.1,6.15,9.05,6.15,14.851c0,5.801-2.051,10.751-6.15,14.851c-4.1,4.1-9.049,6.149-14.85,6.149
		c-5.801,0-10.751-2.049-14.851-6.149c-4.1-4.099-6.149-9.049-6.149-14.851C1.451,16.087,3.5,11.137,7.6,7.037z M35.236,17.27
		c1.068-0.745,2.057-1.766,2.965-3.062c-1.168,0.486-2.318,0.794-3.451,0.924c1.264-0.712,2.121-1.814,2.576-3.306
		c-1.199,0.681-2.447,1.167-3.744,1.458c-1.166-1.264-2.609-1.896-4.326-1.896c-1.653,0-3.055,0.583-4.205,1.75
		c-1.15,1.167-1.726,2.576-1.726,4.229c0,0.486,0.049,0.94,0.146,1.361c-5.024-0.259-9.139-2.349-12.347-6.271
		c-0.519,0.972-0.778,1.977-0.778,3.014c0,2.139,0.875,3.792,2.625,4.958c-0.908,0-1.799-0.243-2.674-0.729v0.049
		c0,1.426,0.454,2.69,1.361,3.792c0.907,1.102,2.042,1.798,3.403,2.09c-0.422,0.13-0.94,0.194-1.556,0.194
		c-0.292,0-0.665-0.032-1.118-0.097c0.356,1.199,1.045,2.163,2.066,2.892c1.021,0.729,2.179,1.111,3.476,1.143
		c-2.301,1.815-4.764,2.722-7.389,2.722c-0.357,0-0.827-0.032-1.41-0.097c2.689,1.75,5.736,2.625,9.139,2.625
		c2.625,0,5.039-0.51,7.243-1.531c2.204-1.021,3.994-2.357,5.372-4.01c1.377-1.653,2.447-3.467,3.209-5.445
		c0.76-1.976,1.143-3.969,1.143-5.979V17.27z"/>
</g>
</svg>
