<?xml version="1.0" encoding="iso-8859-1"?>
<!-- Generator: Adobe Illustrator 15.0.0, SVG Export Plug-In . SVG Version: 6.00 Build 0)  -->
<!DOCTYPE svg PUBLIC "-//W3C//DTD SVG 1.1//EN" "http://www.w3.org/Graphics/SVG/1.1/DTD/svg11.dtd">
<svg version="1.1" id="Layer_1" xmlns="http://www.w3.org/2000/svg" xmlns:xlink="http://www.w3.org/1999/xlink" x="0px" y="0px"
	 width="174px" height="134px" viewBox="0 0 174 134" style="enable-background:new 0 0 174 134;" xml:space="preserve">
<path style="fill:#B2B3B4;" d="M115.742,8.7H66.784v100h77.031V37.841L115.742,8.7z M117.058,21.747l13.216,13.724h-13.216V21.747z
	 M74.89,100.601V16.812h36.087v24.74h24.732v59.05H74.89V100.601z"/>
<polygon style="fill:#FFFFFF;" points="59.667,39.333 89.177,39.333 114.053,64.209 114.053,112.667 60.333,112.667 "/>
<path style="fill:#B2B3B4;" d="M92.942,31.5H43.984v100h77.031V60.641L92.942,31.5z M94.258,44.547l13.216,13.724H94.258V44.547z
	 M52.09,123.4V39.612h36.087v24.74h24.732v59.05H52.09V123.4z"/>
<g>
	<path style="fill:#B2B3B4;" d="M157.167,3.074c-7.373,0-13.352,5.979-13.352,13.351c0,3.655,1.475,6.959,3.855,9.373l-0.041,7.794
		l6.393-4.229c1.014,0.25,2.057,0.414,3.145,0.414c7.373,0,13.352-5.979,13.352-13.352C170.519,9.053,164.54,3.074,157.167,3.074z"
		/>
</g>
<g>
	<path style="fill:#B2B3B4;" d="M27.834,89.969c5.089,0,9.215,4.127,9.215,9.216c0,2.521-1.018,4.803-2.661,6.469l0.028,5.379
		l-4.412-2.918c-0.7,0.172-1.419,0.285-2.17,0.285c-5.089,0-9.215-4.127-9.215-9.215C18.619,94.096,22.745,89.969,27.834,89.969z"/>
</g>
<path style="fill:#B2B3B4;" d="M20.167,16.645c6.522,0,11.825,5.303,11.825,11.824c0,3.118-1.215,6.064-3.418,8.301l-1.372,1.39
	l0.008,1.954l0.005,0.809l-0.541-0.355l-1.728-1.146l-2.014,0.499c-1.025,0.249-1.931,0.374-2.767,0.374
	c-6.522,0-11.825-5.303-11.825-11.825C8.342,21.947,13.645,16.645,20.167,16.645 M20.167,11.914
	c-9.142,0-16.555,7.414-16.555,16.555c0,9.142,7.413,16.555,16.555,16.555c1.349,0,2.643-0.203,3.898-0.513l7.926,5.243
	l-0.051-9.663c2.952-2.993,4.781-7.091,4.781-11.622C36.721,19.328,29.308,11.914,20.167,11.914L20.167,11.914z"/>
<g>
	<path style="fill:#B2B3B4;" d="M74.704,79.8c0,1.216-0.283,2.083-0.848,2.601c-0.566,0.518-1.43,0.775-2.593,0.775
		c-0.607,0-1.106-0.083-1.496-0.248c-0.389-0.165-0.698-0.399-0.928-0.704c-0.229-0.304-0.387-0.658-0.472-1.063
		c-0.086-0.405-0.128-0.832-0.128-1.28v-0.496h2.111v0.353c0,0.607,0.067,1.059,0.2,1.352c0.134,0.294,0.408,0.44,0.824,0.44
		s0.69-0.146,0.824-0.44c0.133-0.293,0.2-0.744,0.2-1.352v-8.16h2.304V79.8z"/>
	<path style="fill:#B2B3B4;" d="M80.24,71.576c0.587,0,1.08,0.099,1.479,0.296c0.4,0.197,0.723,0.456,0.969,0.776
		c0.245,0.319,0.421,0.686,0.527,1.096s0.16,0.829,0.16,1.256c0,0.587-0.088,1.099-0.264,1.536s-0.422,0.795-0.736,1.072
		s-0.695,0.485-1.144,0.624s-0.944,0.208-1.488,0.208h-1.232V83h-2.304V71.576H80.24z M79.536,76.744
		c0.459,0,0.829-0.139,1.112-0.416c0.282-0.277,0.424-0.709,0.424-1.296c0-0.576-0.123-1.014-0.368-1.312
		c-0.245-0.298-0.656-0.447-1.231-0.447h-0.961v3.472H79.536z"/>
	<path style="fill:#B2B3B4;" d="M89.512,74.312c-0.048-0.224-0.125-0.429-0.231-0.615c-0.107-0.187-0.243-0.342-0.408-0.464
		c-0.166-0.123-0.365-0.185-0.601-0.185c-0.555,0-0.954,0.31-1.199,0.928c-0.246,0.619-0.368,1.644-0.368,3.072
		c0,0.683,0.021,1.302,0.063,1.856c0.043,0.555,0.12,1.026,0.232,1.416s0.271,0.688,0.479,0.896s0.478,0.312,0.809,0.312
		c0.139,0,0.29-0.037,0.456-0.112c0.165-0.074,0.319-0.187,0.464-0.336c0.144-0.149,0.264-0.339,0.36-0.568
		c0.096-0.229,0.144-0.498,0.144-0.808v-1.168h-1.52V76.84h3.728V83h-1.696v-1.056h-0.031c-0.278,0.447-0.611,0.766-1,0.952
		c-0.39,0.186-0.856,0.279-1.4,0.279c-0.704,0-1.277-0.122-1.72-0.368c-0.443-0.245-0.79-0.624-1.04-1.136
		c-0.251-0.512-0.419-1.144-0.504-1.896c-0.086-0.752-0.128-1.624-0.128-2.616c0-0.96,0.061-1.803,0.184-2.528
		c0.122-0.725,0.333-1.33,0.632-1.815s0.693-0.851,1.185-1.097c0.49-0.245,1.104-0.368,1.84-0.368c1.258,0,2.165,0.312,2.72,0.937
		s0.832,1.518,0.832,2.68h-2.208C89.584,74.755,89.56,74.536,89.512,74.312z"/>
	<path style="fill:#B2B3B4;" d="M72.832,90.776c0.587,0,1.08,0.099,1.479,0.296c0.4,0.197,0.723,0.456,0.969,0.776
		c0.245,0.319,0.421,0.686,0.527,1.096s0.16,0.829,0.16,1.256c0,0.587-0.088,1.099-0.264,1.536s-0.422,0.795-0.736,1.072
		s-0.695,0.485-1.144,0.624s-0.944,0.208-1.488,0.208h-1.232v4.56H68.8V90.776H72.832z M72.128,95.944
		c0.459,0,0.829-0.139,1.112-0.416c0.282-0.277,0.424-0.709,0.424-1.296c0-0.576-0.123-1.014-0.368-1.312
		c-0.245-0.298-0.656-0.447-1.231-0.447h-0.961v3.472H72.128z"/>
	<path style="fill:#B2B3B4;" d="M82.544,98.601h0.032v-7.824h2.111V102.2h-2.624l-2.815-8h-0.032v8h-2.112V90.776h2.656
		L82.544,98.601z"/>
	<path style="fill:#B2B3B4;" d="M91.288,93.512c-0.048-0.224-0.125-0.429-0.231-0.615c-0.107-0.187-0.243-0.342-0.408-0.464
		c-0.166-0.123-0.365-0.185-0.601-0.185c-0.555,0-0.954,0.31-1.199,0.928c-0.246,0.619-0.368,1.644-0.368,3.072
		c0,0.683,0.021,1.302,0.063,1.856c0.043,0.555,0.12,1.026,0.232,1.416s0.271,0.688,0.479,0.896s0.478,0.312,0.809,0.312
		c0.139,0,0.29-0.037,0.456-0.112c0.165-0.074,0.319-0.187,0.464-0.336c0.144-0.149,0.264-0.339,0.36-0.568
		c0.096-0.229,0.144-0.498,0.144-0.808v-1.168h-1.52V96.04h3.728v6.16H92v-1.056h-0.031c-0.278,0.447-0.611,0.766-1,0.952
		c-0.39,0.186-0.856,0.279-1.4,0.279c-0.704,0-1.277-0.122-1.72-0.368c-0.443-0.245-0.79-0.624-1.04-1.136
		c-0.251-0.512-0.419-1.144-0.504-1.896c-0.086-0.752-0.128-1.624-0.128-2.616c0-0.96,0.061-1.803,0.184-2.528
		c0.122-0.725,0.333-1.33,0.632-1.815s0.693-0.851,1.185-1.097c0.49-0.245,1.104-0.368,1.84-0.368c1.258,0,2.165,0.312,2.72,0.937
		s0.832,1.518,0.832,2.68H91.36C91.36,93.955,91.336,93.736,91.288,93.512z"/>
</g>
</svg>
