<?xml version="1.0" encoding="iso-8859-1"?>
<!-- Generator: Adobe Illustrator 15.0.0, SVG Export Plug-In . SVG Version: 6.00 Build 0)  -->
<!DOCTYPE svg PUBLIC "-//W3C//DTD SVG 1.1//EN" "http://www.w3.org/Graphics/SVG/1.1/DTD/svg11.dtd">
<svg version="1.1" id="Layer_1" xmlns="http://www.w3.org/2000/svg" xmlns:xlink="http://www.w3.org/1999/xlink" x="0px" y="0px"
	 width="108.197px" height="113.115px" viewBox="0 0 108.197 113.115" style="enable-background:new 0 0 108.197 113.115;"
	 xml:space="preserve">
<path style="fill:#B3B4B4;" d="M61.976,16.426c17.236,0,31.25,14.014,31.25,31.25c0,8.24-3.211,16.027-9.034,21.936l-3.625,3.674
	l0.022,5.164l0.014,2.137l-1.429-0.939l-4.564-3.027l-5.321,1.318c-2.711,0.658-5.104,0.988-7.312,0.988
	c-17.236,0-31.25-14.014-31.25-31.25C30.726,30.44,44.739,16.426,61.976,16.426 M61.976,3.926c-24.158,0-43.75,19.592-43.75,43.75
	s19.592,43.75,43.75,43.75c3.564,0,6.982-0.537,10.303-1.355l20.947,13.855l-0.135-25.537c7.801-7.91,12.635-18.738,12.635-30.713
	C105.726,23.518,86.134,3.926,61.976,3.926L61.976,3.926z"/>
<g>
	<path style="fill:#B3B4B4;" d="M28.562,52.41C14.978,52.41,3.96,63.427,3.96,77.012c0,6.733,2.718,12.823,7.105,17.271
		l-0.076,14.36l11.78-7.79c1.867,0.46,3.789,0.762,5.793,0.762c13.585,0,24.603-11.018,24.603-24.603S42.147,52.41,28.562,52.41z"/>
</g>
</svg>
