<?xml version="1.0" encoding="iso-8859-1"?>
<!-- Generator: Adobe Illustrator 15.0.0, SVG Export Plug-In . SVG Version: 6.00 Build 0)  -->
<!DOCTYPE svg PUBLIC "-//W3C//DTD SVG 1.1//EN" "http://www.w3.org/Graphics/SVG/1.1/DTD/svg11.dtd">
<svg version="1.1" id="Layer_1" xmlns="http://www.w3.org/2000/svg" xmlns:xlink="http://www.w3.org/1999/xlink" x="0px" y="0px"
	 width="137.6px" height="151.2px" viewBox="0 0 137.6 151.2" style="enable-background:new 0 0 137.6 151.2;" xml:space="preserve"
	>
<g>
	<path style="fill:#B2B3B4;" d="M57.904,33.9c0-5.317,21.273-5.317,21.273,0c0,20.766,11.034,89.196,11.034,89.196l-21.668,23.598
		l-21.278-24.288C47.265,122.406,57.904,54.196,57.904,33.9z"/>
	<path style="fill:#B2B3B4;" d="M83.503,7.398c0-5.189-30.35-5.189-30.35,0c0,3.569,2.412,20.899,4.834,18.482
		c4.247-4.248,16.519-4.248,20.765,0C81.173,28.297,83.503,12.029,83.503,7.398z"/>
</g>
<g>
	<path style="fill:#B2B3B4;" d="M113.54,47.569c0-3.14,12.562-3.14,12.562,0c0,12.263,6.517,52.676,6.517,52.676l-12.797,13.936
		l-12.565-14.343C107.257,99.837,113.54,59.555,113.54,47.569z"/>
	<path style="fill:#B2B3B4;" d="M128.657,31.917c0-3.065-17.924-3.065-17.924,0c0,2.107,1.424,12.341,2.856,10.915
		c2.508-2.509,9.755-2.509,12.264,0C127.28,44.259,128.657,34.651,128.657,31.917z"/>
</g>
<g>
	<path style="fill:#B2B3B4;" d="M11.14,47.569c0-3.14,12.562-3.14,12.562,0c0,12.263,6.517,52.676,6.517,52.676L17.422,114.18
		L4.857,99.837C4.857,99.837,11.14,59.555,11.14,47.569z"/>
	<path style="fill:#B2B3B4;" d="M26.257,31.917c0-3.065-17.924-3.065-17.924,0c0,2.107,1.424,12.341,2.856,10.915
		c2.508-2.509,9.755-2.509,12.264,0C24.88,44.259,26.257,34.651,26.257,31.917z"/>
</g>
</svg>
