<?xml version="1.0" encoding="iso-8859-1"?>
<!-- Generator: Adobe Illustrator 15.0.0, SVG Export Plug-In . SVG Version: 6.00 Build 0)  -->
<!DOCTYPE svg PUBLIC "-//W3C//DTD SVG 1.1//EN" "http://www.w3.org/Graphics/SVG/1.1/DTD/svg11.dtd">
<svg version="1.1" id="Layer_1" xmlns="http://www.w3.org/2000/svg" xmlns:xlink="http://www.w3.org/1999/xlink" x="0px" y="0px"
	 width="95.2px" height="100.8px" viewBox="0 0 95.2 100.8" style="enable-background:new 0 0 95.2 100.8;" xml:space="preserve">
<path style="fill:#B2B3B4;" d="M70.844,68.314h4.725v-9.887c0-1.399-1.135-2.536-2.536-2.536h-9.89V45.733
	c0-9.983-8.123-18.108-18.106-18.108c-9.986,0-18.109,8.125-18.109,18.108v10.158h-9.892c-1.398,0-2.534,1.137-2.534,2.536v9.887
	h42.224c1.303,0,2.353,1.054,2.353,2.354c0,1.299-1.05,2.352-2.353,2.352H14.5v8.098h42.225c1.301,0,2.352,1.055,2.352,2.352
	c0,1.302-1.051,2.355-2.352,2.355H14.5v10.082c0,1.4,1.136,2.536,2.534,2.536h55.997c1.4,0,2.535-1.136,2.535-2.536V85.823h-4.724
	c-1.302,0-2.354-1.054-2.354-2.354c0-1.298,1.052-2.353,2.354-2.353h4.724v-8.097h-4.724c-1.302,0-2.354-1.053-2.354-2.353
	C68.49,69.368,69.542,68.314,70.844,68.314z M58.072,55.891H31.994V45.733c0-7.188,5.85-13.036,13.041-13.036
	c7.188,0,13.037,5.848,13.037,13.036V55.891z"/>
<g>
	<path style="fill:#B2B3B4;" d="M79.851,19.933c-6.361,0-11.521,5.16-11.521,11.521c0,3.153,1.272,6.005,3.327,8.088l-0.035,6.725
		l5.516-3.649c0.874,0.215,1.774,0.357,2.713,0.357c6.362,0,11.521-5.159,11.521-11.521C91.372,25.093,86.213,19.933,79.851,19.933z
		"/>
</g>
<g>
	<path style="fill:#B2B3B4;" d="M14.102,33.11c3.887,0,7.039,3.153,7.039,7.04c0,1.927-0.777,3.67-2.032,4.943l0.021,4.109
		l-3.371-2.23c-0.534,0.132-1.084,0.218-1.657,0.218c-3.888,0-7.041-3.152-7.041-7.041C7.061,36.264,10.214,33.11,14.102,33.11z"/>
</g>
<path style="fill:#B2B3B4;" d="M31.423,6.004c4.373,0,7.928,3.556,7.928,7.928c0,4.373-3.555,7.929-7.928,7.929
	c-0.56,0-1.167-0.084-1.855-0.251l-1.35-0.334l-1.158,0.769l-0.362,0.238l0.003-0.542l0.006-1.31l-0.92-0.932
	c-1.477-1.499-2.292-3.475-2.292-5.565C23.495,9.56,27.05,6.004,31.423,6.004 M31.423,2.833c-6.129,0-11.1,4.971-11.1,11.1
	c0,3.039,1.227,5.786,3.206,7.792l-0.034,6.479l5.314-3.516c0.842,0.208,1.709,0.344,2.614,0.344c6.129,0,11.1-4.97,11.1-11.1
	C42.523,7.803,37.552,2.833,31.423,2.833L31.423,2.833z"/>
<path style="fill:#B2B3B4;" d="M55.4,12.047c3.206,0,5.812,2.607,5.812,5.813c0,1.534-0.597,2.982-1.68,4.081l-0.674,0.684
	l0.005,0.96l0.001,0.397L58.6,23.81l-0.849-0.564l-0.99,0.246c-0.504,0.122-0.949,0.184-1.36,0.184
	c-3.206,0-5.813-2.607-5.813-5.814C49.587,14.655,52.194,12.047,55.4,12.047 M55.4,9.722c-4.494,0-8.139,3.645-8.139,8.139
	c0,4.495,3.645,8.139,8.139,8.139c0.663,0,1.299-0.1,1.917-0.252l3.896,2.578l-0.024-4.75c1.452-1.472,2.351-3.486,2.351-5.714
	C63.539,13.367,59.895,9.722,55.4,9.722L55.4,9.722z"/>
</svg>
