<?xml version="1.0" encoding="iso-8859-1"?>
<!-- Generator: Adobe Illustrator 15.0.0, SVG Export Plug-In . SVG Version: 6.00 Build 0)  -->
<!DOCTYPE svg PUBLIC "-//W3C//DTD SVG 1.1//EN" "http://www.w3.org/Graphics/SVG/1.1/DTD/svg11.dtd">
<svg version="1.1" id="Layer_1" xmlns="http://www.w3.org/2000/svg" xmlns:xlink="http://www.w3.org/1999/xlink" x="0px" y="0px"
	 width="100px" height="100px" viewBox="0 0 100 100" style="enable-background:new 0 0 100 100;" xml:space="preserve">
<path d="M0,94.45V85.43c0,0,0.587-5.537,7.255-7.255c0,0,10.739-3.921,19.15-7.582c4.35-1.892,5.286-3.028,9.674-4.968
	c0,0,0.458-2.253,0.293-3.594h3.432c0,0,0.784,0.457,0-4.838c0,0-4.183-1.109-4.378-9.542c0,0-3.142,1.058-3.334-4.052
	c-0.131-3.464-2.811-6.471,1.046-8.954l-1.961-5.294c0,0-3.921-21.372,7.353-18.235c-4.756-5.686,26.96-11.371,29.02,6.667
	c0,0,1.47,9.739,0,16.405c0,0,4.632-0.536,1.535,8.367c0,0-1.698,6.405-4.313,4.967c0,0,0.427,8.104-3.691,9.478
	c0,0,0.293,4.313,0.293,4.606l3.923,0.588c0,0-0.59,3.531,0.099,3.922c0,0,4.65,3.186,10.194,4.609
	c10.687,2.742,23.333,7.449,23.333,11.567c0,0,1.079,5.49,1.079,12.156H0z"/>
</svg>
