<?xml version="1.0" encoding="iso-8859-1"?>
<!-- Generator: Adobe Illustrator 15.0.0, SVG Export Plug-In . SVG Version: 6.00 Build 0)  -->
<!DOCTYPE svg PUBLIC "-//W3C//DTD SVG 1.1//EN" "http://www.w3.org/Graphics/SVG/1.1/DTD/svg11.dtd">
<svg version="1.1" id="Layer_1" xmlns="http://www.w3.org/2000/svg" xmlns:xlink="http://www.w3.org/1999/xlink" x="0px" y="0px"
	 width="100px" height="100px" viewBox="0 0 100 100" style="enable-background:new 0 0 100 100;" xml:space="preserve">
<path d="M99.02,50l-33.978-7.482L78.42,21.581L57.481,34.957L50,0.98l-7.482,33.977L21.581,21.581l13.376,20.937L0.98,50
	l33.977,7.481L21.581,78.418l20.937-13.377L50,99.02l7.481-33.978L78.418,78.42L65.042,57.481L99.02,50L99.02,50z M71.512,28.488
	L71.512,28.488l-8.656,13.548l-4.01-0.883L71.512,28.488L71.512,28.488z M28.487,28.487l13.549,8.656l-0.883,4.01L28.487,28.487
	L28.487,28.487z M28.488,71.512l8.655-13.549l4.01,0.883L28.488,71.512L28.488,71.512z M57.084,57.084L57.084,57.084L50,50v39.244
	l-7.083-32.162L50,50H10.756l32.161-7.083L50,50V10.756l7.084,32.161L50,50h39.244 M71.513,71.513l-13.55-8.657l0.883-4.01
	L71.513,71.513L71.513,71.513z"/>
</svg>
